<?xml version="1.0" encoding="UTF-8"?>
<svg xmlns="http://www.w3.org/2000/svg" xmlns:xlink="http://www.w3.org/1999/xlink" width="200px" height="21px" viewBox="0 0 198 21" version="1.1">
<g id="surface1">
<path style=" stroke:none;fill-rule:nonzero;fill:rgb(92.941176%,10.980392%,14.117647%);fill-opacity:1;" d="M 138.71875 7.296875 L 145.257812 7.296875 L 145.257812 10.734375 L 138.71875 10.734375 Z M 138.71875 7.296875 "/>
<path style=" stroke:none;fill-rule:nonzero;fill:rgb(92.941176%,10.980392%,14.117647%);fill-opacity:1;" d="M 114.933594 7.296875 L 121.46875 7.296875 L 121.46875 10.734375 L 114.933594 10.734375 Z M 114.933594 7.296875 "/>
<path style=" stroke:none;fill-rule:nonzero;fill:rgb(100%,100%,100%);fill-opacity:1;" d="M 37.074219 0.09375 L 26.652344 0.09375 C 23.390625 0.09375 22.347656 0.980469 22.347656 4.421875 L 22.347656 14.074219 C 22.347656 17.511719 23.390625 18.398438 26.652344 18.398438 L 29.949219 18.398438 L 29.949219 20.90625 L 33.78125 20.90625 L 33.78125 18.398438 L 37.074219 18.398438 C 40.339844 18.398438 41.378906 17.511719 41.378906 14.070312 L 41.378906 4.421875 C 41.378906 0.980469 40.335938 0.09375 37.074219 0.09375 Z M 37.34375 14.957031 L 33.78125 14.957031 L 33.78125 12.996094 L 29.949219 12.996094 L 29.949219 14.957031 L 26.382812 14.957031 L 26.382812 3.238281 L 37.34375 3.238281 Z M 37.34375 14.957031 "/>
<path style=" stroke:none;fill-rule:nonzero;fill:rgb(100%,100%,100%);fill-opacity:1;" d="M 58.222656 14.957031 L 48.605469 14.957031 L 48.605469 0.09375 L 44.570312 0.09375 L 44.570312 14.070312 C 44.570312 17.511719 45.613281 18.398438 48.875 18.398438 L 57.953125 18.398438 C 61.21875 18.398438 62.261719 17.511719 62.261719 14.070312 L 62.261719 0.09375 L 58.222656 0.09375 Z M 58.222656 14.957031 "/>
<path style=" stroke:none;fill-rule:nonzero;fill:rgb(100%,100%,100%);fill-opacity:1;" d="M 72.519531 0.09375 L 63.273438 18.398438 L 67.070312 18.398438 L 68.972656 14.390625 L 79.328125 14.390625 L 81.292969 18.398438 L 85.566406 18.398438 L 76.191406 0.09375 Z M 70.589844 11.09375 L 74.230469 3.640625 L 77.746094 11.09375 Z M 70.589844 11.09375 "/>
<path style=" stroke:none;fill-rule:nonzero;fill:rgb(100%,100%,100%);fill-opacity:1;" d="M 100.203125 11.480469 C 102.859375 11.480469 104.101562 10.488281 104.101562 7.933594 L 104.101562 3.644531 C 104.101562 1.089844 102.859375 0.09375 100.203125 0.09375 L 87.222656 0.09375 L 87.222656 18.398438 L 91.191406 18.398438 L 91.191406 11.480469 L 93.871094 11.480469 L 100.132812 18.398438 L 105.605469 18.398438 L 98.644531 11.480469 Z M 91.191406 8.359375 L 91.191406 3.25 L 98.386719 3.25 C 99.628906 3.25 100.203125 3.5 100.203125 4.707031 L 100.203125 6.90625 C 100.203125 8.113281 99.628906 8.359375 98.386719 8.359375 Z M 91.191406 8.359375 "/>
<path style=" stroke:none;fill-rule:nonzero;fill:rgb(100%,100%,100%);fill-opacity:1;" d="M 135.382812 3.214844 L 146.75 3.214844 L 146.75 0.09375 L 131.347656 0.09375 L 131.347656 18.398438 L 146.917969 18.398438 L 146.917969 14.957031 L 135.382812 14.957031 Z M 135.382812 3.214844 "/>
<path style=" stroke:none;fill-rule:nonzero;fill:rgb(100%,100%,100%);fill-opacity:1;" d="M 163.371094 9.707031 C 163.371094 10.277344 163.4375 11.339844 163.539062 12.867188 C 162.933594 12.121094 152.644531 0.09375 152.644531 0.09375 L 149.886719 0.09375 L 149.886719 18.398438 L 153.519531 18.398438 L 153.519531 8.503906 C 153.519531 7.972656 153.488281 7.011719 153.351562 5.59375 C 153.824219 6.160156 164.246094 18.398438 164.246094 18.398438 L 167.003906 18.398438 L 167.003906 0.09375 L 163.371094 0.09375 Z M 163.371094 9.707031 "/>
<path style=" stroke:none;fill-rule:nonzero;fill:rgb(100%,100%,100%);fill-opacity:1;" d="M 170.34375 0.09375 L 174.378906 0.09375 L 174.378906 18.398438 L 170.34375 18.398438 Z M 170.34375 0.09375 "/>
<path style=" stroke:none;fill-rule:nonzero;fill:rgb(100%,100%,100%);fill-opacity:1;" d="M 189.109375 8.503906 L 196.304688 0.09375 L 191.890625 0.09375 L 186.867188 6.300781 L 181.589844 0.09375 L 176.503906 0.09375 L 184.46875 9 L 176.632812 18.398438 L 181.175781 18.398438 L 186.742188 11.304688 L 192.785156 18.398438 L 198 18.398438 Z M 189.109375 8.503906 "/>
<path style=" stroke:none;fill-rule:nonzero;fill:rgb(100%,100%,100%);fill-opacity:1;" d="M 111.59375 3.214844 L 122.960938 3.214844 L 122.960938 0.09375 L 107.558594 0.09375 L 107.558594 18.398438 L 123.128906 18.398438 L 123.128906 14.957031 L 111.59375 14.957031 Z M 111.59375 3.214844 "/>
<path style=" stroke:none;fill-rule:nonzero;fill:rgb(100%,100%,100%);fill-opacity:1;" d="M 0 14.957031 C 0 17.648438 1.335938 18.398438 4.296875 18.398438 L 15.125 18.398438 C 18.386719 18.398438 19.460938 17.511719 19.460938 14.070312 L 19.460938 11.554688 C 19.460938 8.113281 18.386719 7.226562 15.125 7.226562 L 4.292969 7.226562 L 4.292969 3.238281 L 15.660156 3.238281 L 15.660156 4.921875 L 19.226562 4.917969 L 19.226562 4.101562 C 19.226562 0.945312 18.015625 0.09375 14.921875 0.09375 L 5.066406 0.09375 C 1.804688 0.09375 0.761719 0.980469 0.761719 4.421875 L 0.761719 6.445312 C 0.761719 9.886719 1.804688 10.773438 5.066406 10.773438 L 15.898438 10.773438 L 15.898438 14.957031 Z M 0 14.957031 "/>
</g>
</svg>
